<?xml version="1.0" standalone="no"?>
<!DOCTYPE svg PUBLIC "-//W3C//DTD SVG 20010904//EN"
 "http://www.w3.org/TR/2001/REC-SVG-20010904/DTD/svg10.dtd">
<svg version="1.0" xmlns="http://www.w3.org/2000/svg"
 width="500.000000pt" height="500.000000pt" viewBox="0 0 500.000000 500.000000"
 preserveAspectRatio="xMidYMid meet">
<metadata>
Created by potrace 1.14, written by Peter Selinger 2001-2017
</metadata>
<g transform="translate(0.000000,500.000000) scale(0.100000,-0.100000)"
fill="#000000" stroke="none">
<path d="M1803 4831 c-167 -48 -308 -197 -342 -364 -16 -75 -10 -3907 6 -3960
50 -169 196 -308 363 -346 66 -15 1246 -15 1307 0 92 23 171 66 232 126 70 71
109 135 133 221 17 63 18 158 18 1992 0 1709 -2 1932 -16 1984 -44 169 -174
301 -342 347 -62 18 -112 19 -682 18 -557 0 -621 -2 -677 -18z"/>
</g>
</svg>
